<svg xmlns="http://www.w3.org/2000/svg" xmlns:xlink="http://www.w3.org/1999/xlink" version="1.1" x="0px" y="0px" viewBox="0 0 90 112.5" style="enable-background:new 0 0 90 90;" xml:space="preserve"><g><path d="M73.8,61.5h-15v-3.1h8.2c0.7,0,1.3-0.6,1.3-1.3c0-0.7-0.6-1.3-1.3-1.3h-8.2v-5.7h4.5l0,0l0,0l2.4-3.7L40.9,30.5L16,46.4   l2.4,3.7l0,0h4.5v5.7h-9c-0.7,0-1.3,0.6-1.3,1.3c0,0.7,0.6,1.3,1.3,1.3h9v3.1h-17c-0.7,0-1.3,0.6-1.3,1.3s0.6,1.3,1.3,1.3h26.6   c0.7,0,1.3-0.6,1.3-1.3s-0.6-1.3-1.3-1.3H27V44.6l13.9-8.9l13.9,8.9v16.9h-4.4V47.2h-9.7v15.6l0,0v0c0,0.7,0.6,1.3,1.3,1.3h31.8   c0.7,0,1.3-0.6,1.3-1.3S74.6,61.5,73.8,61.5z"/><path d="M58.2,67.5H45c-0.7,0-1.3,0.6-1.3,1.3c0,0.7,0.6,1.3,1.3,1.3h13.1c0.7,0,1.3-0.6,1.3-1.3C59.5,68.1,58.9,67.5,58.2,67.5z"/><path d="M52.2,72.8H33.8c-0.7,0-1.3,0.6-1.3,1.3c0,0.7,0.6,1.3,1.3,1.3h18.4c0.7,0,1.3-0.6,1.3-1.3C53.5,73.3,52.9,72.8,52.2,72.8z   "/><path d="M37.2,68.8c0-0.7-0.6-1.3-1.3-1.3h-9.6c-0.7,0-1.3,0.6-1.3,1.3c0,0.7,0.6,1.3,1.3,1.3h9.6C36.7,70.2,37.2,69.6,37.2,68.8z"/><path d="M70.4,67.5h-6c-0.7,0-1.3,0.6-1.3,1.3c0,0.7,0.6,1.3,1.3,1.3h6c0.7,0,1.3-0.6,1.3-1.3C71.7,68.1,71.1,67.5,70.4,67.5z"/><path d="M18.6,67.5h-6c-0.7,0-1.3,0.6-1.3,1.3c0,0.7,0.6,1.3,1.3,1.3h6c0.7,0,1.3-0.6,1.3-1.3C19.9,68.1,19.4,67.5,18.6,67.5z"/><rect x="30.8" y="47.2" width="6" height="8.7"/><path d="M49.5,29.9c0.6-0.4,2-3.2,2-3.2s-3,0.7-3.5,1.2c-0.6,0.4-0.7,1.3-0.3,1.8C48.2,30.3,49,30.4,49.5,29.9z"/><path d="M57.1,24c0.6-0.4,2-3.2,2-3.2s-3,0.7-3.5,1.2c-0.6,0.4-0.7,1.3-0.3,1.8C55.7,24.4,56.5,24.5,57.1,24z"/><path d="M64.7,18.1c0.6-0.4,2-3.2,2-3.2s-3,0.7-3.5,1.2c-0.6,0.4-0.7,1.3-0.3,1.8C63.3,18.5,64.1,18.5,64.7,18.1z"/><path d="M28.8,32.7c0.6-0.4,2-3.2,2-3.2s-3,0.7-3.5,1.2c-0.6,0.4-0.7,1.3-0.3,1.8S28.3,33.2,28.8,32.7z"/><path d="M36.4,26.8c0.6-0.4,2-3.2,2-3.2s-3,0.7-3.5,1.2c-0.6,0.4-0.7,1.3-0.3,1.8C35,27.2,35.8,27.2,36.4,26.8z"/><path d="M44,20.9c0.6-0.4,2-3.2,2-3.2s-3,0.7-3.5,1.2c-0.6,0.4-0.7,1.3-0.3,1.8S43.4,21.3,44,20.9z"/><path d="M57.3,35.3c0.4,0.6,1.2,0.6,1.8,0.2c0.6-0.4,2-3.2,2-3.2s-3,0.7-3.5,1.2C57,34,56.9,34.8,57.3,35.3z"/><path d="M64.9,29.4c0.4,0.6,1.2,0.6,1.8,0.2c0.6-0.4,2-3.2,2-3.2s-3,0.7-3.5,1.2C64.6,28.1,64.5,28.9,64.9,29.4z"/><path d="M74.3,23.7c0.6-0.4,2-3.2,2-3.2s-3,0.7-3.5,1.2c-0.6,0.4-0.7,1.3-0.3,1.8C72.9,24.1,73.7,24.1,74.3,23.7z"/><path d="M81.9,17.8c0.6-0.4,2-3.2,2-3.2s-3,0.7-3.5,1.2c-0.6,0.4-0.7,1.3-0.3,1.8C80.5,18.1,81.3,18.2,81.9,17.8z"/><path d="M66.5,41.9c0.4,0.6,1.2,0.6,1.8,0.2c0.6-0.4,2-3.2,2-3.2s-3,0.7-3.5,1.2C66.2,40.5,66,41.3,66.5,41.9z"/><path d="M74.3,34.2c-0.6,0.4-0.7,1.3-0.3,1.8c0.4,0.6,1.2,0.6,1.8,0.2c0.6-0.4,2-3.2,2-3.2S74.9,33.7,74.3,34.2z"/><path d="M81.9,28.2c-0.6,0.4-0.7,1.3-0.3,1.8c0.4,0.6,1.2,0.6,1.8,0.2c0.6-0.4,2-3.2,2-3.2S82.5,27.8,81.9,28.2z"/><path d="M70.2,53.4c0.4,0.6,1.2,0.6,1.8,0.2c0.6-0.4,2-3.2,2-3.2s-3,0.7-3.5,1.2C69.8,52.1,69.7,52.9,70.2,53.4z"/><path d="M77.7,47.5c0.4,0.6,1.2,0.6,1.8,0.2c0.6-0.4,2-3.2,2-3.2s-3,0.7-3.5,1.2C77.4,46.1,77.3,47,77.7,47.5z"/></g><text x="0" y="105" fill="#000000" font-size="5px" font-weight="bold" font-family="'Helvetica Neue', Helvetica, Arial-Unicode, Arial, Sans-serif">Created by Yazmin Alanis</text><text x="0" y="110" fill="#000000" font-size="5px" font-weight="bold" font-family="'Helvetica Neue', Helvetica, Arial-Unicode, Arial, Sans-serif">from the Noun Project</text></svg>