<svg xmlns="http://www.w3.org/2000/svg" xmlns:xlink="http://www.w3.org/1999/xlink" version="1.1" x="0px" y="0px" viewBox="0 0 100 125" enable-background="new 0 0 100 100" xml:space="preserve"><g><path d="M71.848,26.85C71.848,14.803,62.048,5,50,5s-21.849,9.803-21.849,21.85C28.153,38.896,37.953,51.684,50,51.684   C62.048,51.684,71.848,38.896,71.848,26.85z"/><path d="M9.192,80.607C9.192,88.555,27.462,95,50,95c22.537,0,40.808-6.445,40.808-14.393c0-13.694-9.469-25.166-22.215-28.252   c3.394,2.204,5.732,5.889,6.095,10.137c2.901,0.65,5.078,3.243,5.078,6.338c0,3.584-2.916,6.5-6.5,6.5s-6.5-2.916-6.5-6.5   c0-3.038,2.099-5.589,4.92-6.298c-0.417-3.93-3.021-7.209-6.567-8.611L50.432,67.684L35.55,53.738   c-4.034,1.362-6.966,5.117-7.108,9.571c0.579,0.336,1.047,0.856,1.334,1.486c2.137,1.008,4.023,3.13,5.468,6.151   c0.242,0.509,0.273,1.083,0.096,1.607c0.866,2.229,1.361,4.665,1.361,6.711c0,2.867,0,5.578-3.125,6.274   c-0.339,0.282-0.762,0.436-1.207,0.436H30.28c-1.047,0-1.899-0.853-1.899-1.899l0.002-0.074c0.04-1.009,0.885-1.825,1.897-1.825   h2.088c0.214,0,0.423,0.036,0.624,0.107c0.127-0.036,0.166-0.065,0.167-0.066c0.232-0.412,0.232-2.128,0.232-2.952   c0-1.662-0.416-3.669-1.145-5.534c-0.379-0.215-0.684-0.54-0.872-0.933c-1.267-2.651-2.988-4.363-4.387-4.363   c-1.431,0-3.238,1.851-4.498,4.604c-0.206,0.448-0.567,0.814-1.012,1.032c-0.659,1.785-1.021,3.622-1.021,5.193   c0,0.692,0,2.529,0.265,2.96c0.003,0,0.062,0.036,0.228,0.077c0.216-0.083,0.448-0.126,0.68-0.126h2.092   c0.976,0,1.789,0.743,1.888,1.707l0.011,0.118c0,1.121-0.852,1.974-1.898,1.974H21.63c-0.415,0-0.816-0.138-1.146-0.391   c-1.195-0.225-2.037-0.752-2.57-1.61c-0.646-1.037-0.764-2.399-0.764-4.709c0-2.027,0.468-4.36,1.318-6.589   c-0.125-0.477-0.083-0.975,0.124-1.424c0.886-1.936,2.012-3.594,3.256-4.793c0.684-0.659,1.419-1.189,2.188-1.576   c0.29-0.676,0.792-1.23,1.407-1.581c0.117-4.63,2.576-8.679,6.242-11.012C18.798,55.276,9.192,66.814,9.192,80.607z M55,80.125   c0-0.346,0.314-0.625,0.699-0.625H59.5v-3.8c0-0.387,0.279-0.7,0.625-0.7h3.75c0.344,0,0.625,0.313,0.625,0.7v3.8h3.801   c0.387,0,0.699,0.279,0.699,0.625v3.75c0,0.346-0.313,0.625-0.699,0.625H64.5v3.8c0,0.387-0.281,0.7-0.625,0.7h-3.75   c-0.346,0-0.625-0.313-0.625-0.7v-3.8h-3.801C55.314,84.5,55,84.221,55,83.875V80.125z"/><circle cx="73.266" cy="68.83" r="3"/></g><text x="0" y="115" fill="#000000" font-size="5px" font-weight="bold" font-family="'Helvetica Neue', Helvetica, Arial-Unicode, Arial, Sans-serif">Created by Wilson Joseph</text><text x="0" y="120" fill="#000000" font-size="5px" font-weight="bold" font-family="'Helvetica Neue', Helvetica, Arial-Unicode, Arial, Sans-serif">from the Noun Project</text></svg>