<svg xmlns="http://www.w3.org/2000/svg" xmlns:xlink="http://www.w3.org/1999/xlink" xml:space="preserve" version="1.1" style="shape-rendering:geometricPrecision;text-rendering:geometricPrecision;image-rendering:optimizeQuality;" viewBox="0 0 847 1058.75" x="0px" y="0px" fill-rule="evenodd" clip-rule="evenodd"><defs><style type="text/css">
   
    .fil0 {fill:black}
   
  </style></defs><g><path class="fil0" d="M494 42c79,-1 119,96 101,157 -30,9 -107,-123 -111,-119 -65,66 -117,100 -234,112 -30,-162 206,-229 244,-150zm-158 347l34 0 53 138 54 -138 33 0c76,0 138,62 138,138l0 174c0,75 -62,137 -138,137l-174 0c-75,0 -137,-62 -137,-137l0 -174c0,-76 62,-138 137,-138zm87 284c12,0 22,10 22,22 0,12 -10,22 -22,22 -12,0 -21,-10 -21,-22 0,-12 9,-22 21,-22zm0 -97c12,0 22,10 22,22 0,12 -10,21 -22,21 -12,0 -21,-9 -21,-21 0,-12 9,-22 21,-22zm172 -363c-7,89 -81,159 -172,159 -94,0 -170,-74 -173,-167 97,-7 164,-38 234,-106 20,26 75,119 111,114z"/></g><text x="0" y="862" fill="#000000" font-size="5px" font-weight="bold" font-family="'Helvetica Neue', Helvetica, Arial-Unicode, Arial, Sans-serif">Created by amantaka</text><text x="0" y="867" fill="#000000" font-size="5px" font-weight="bold" font-family="'Helvetica Neue', Helvetica, Arial-Unicode, Arial, Sans-serif">from the Noun Project</text></svg>