<svg xmlns="http://www.w3.org/2000/svg" data-name="Layer 1" viewBox="0 0 100 125" x="0px" y="0px"><title>Artboard 8</title><path d="M67.82,36.78a18.38,18.38,0,0,1-12.53,18s-.54.19-.54.51v4.3a5.39,5.39,0,1,1-10.78,0v-4.3a11.4,11.4,0,0,1,7.86-10.72A7.66,7.66,0,0,0,57,37.1a7.87,7.87,0,0,0-7.75-7.45A7.64,7.64,0,0,0,42.43,34a5.39,5.39,0,0,1-9.72-4.68A18.36,18.36,0,0,1,49.22,18.86h.11A18.61,18.61,0,0,1,67.82,36.78ZM49.36,70.3a5.42,5.42,0,1,0,5.42,5.42A5.42,5.42,0,0,0,49.36,70.3Zm36.41-43h-.08a13.38,13.38,0,0,0-12,7.62,3.93,3.93,0,1,0,7.08,3.41,5.57,5.57,0,0,1,5-3.17,5.73,5.73,0,0,1,5.65,5.43,5.58,5.58,0,0,1-3.8,5.48,8.31,8.31,0,0,0-5.73,7.81V57a3.93,3.93,0,1,0,7.86,0V53.89c0-.23.39-.37.39-.37a13.39,13.39,0,0,0,9.13-13.15A13.56,13.56,0,0,0,85.77,27.31Zm0,37.48a3.95,3.95,0,1,0,3.95,3.95A4,4,0,0,0,85.79,64.79ZM13.25,27.31h-.08a13.38,13.38,0,0,0-12,7.62,3.93,3.93,0,1,0,7.08,3.41,5.56,5.56,0,0,1,5-3.17,5.73,5.73,0,0,1,5.65,5.43,5.58,5.58,0,0,1-3.8,5.48,8.31,8.31,0,0,0-5.73,7.81V57a3.93,3.93,0,1,0,7.86,0V53.89c0-.23.39-.37.39-.37a13.39,13.39,0,0,0,9.13-13.15A13.56,13.56,0,0,0,13.25,27.31Zm0,37.48a3.95,3.95,0,1,0,3.95,3.95A4,4,0,0,0,13.27,64.79Z"/><text x="0" y="115" fill="#000000" font-size="5px" font-weight="bold" font-family="'Helvetica Neue', Helvetica, Arial-Unicode, Arial, Sans-serif">Created by Gregor Cresnar</text><text x="0" y="120" fill="#000000" font-size="5px" font-weight="bold" font-family="'Helvetica Neue', Helvetica, Arial-Unicode, Arial, Sans-serif">from the Noun Project</text></svg>