<svg xmlns="http://www.w3.org/2000/svg" xmlns:xlink="http://www.w3.org/1999/xlink" xml:space="preserve" version="1.1" style="shape-rendering:geometricPrecision;text-rendering:geometricPrecision;image-rendering:optimizeQuality;" viewBox="0 0 313 308.75" x="0px" y="0px" fill-rule="evenodd" clip-rule="evenodd"><defs><style type="text/css">
   
    .fil1 {fill:black}
    .fil2 {fill:black;fill-rule:nonzero}
    .fil0 {fill:black;fill-rule:nonzero}
   
  </style></defs><g><path class="fil0" d="M46 156l47 10c1,0 2,1 2,3l2 13c0,2 -2,3 -4,2l-55 -12c-2,0 -4,-2 -2,-4l6 -11c1,-1 2,-2 4,-1zm46 13l-47 -10 -6 10 55 12 -2 -12z"/><path class="fil1" d="M33 173l64 14c1,0 2,1 1,2l-1 7c-11,8 -21,9 -33,2 -7,-4 -13,-9 -21,-11 0,-1 0,-1 0,-2 1,-2 -1,-4 -3,-5 -3,-1 -5,1 -6,3 0,1 0,2 1,3l-1 0c-2,0 -4,0 -6,0l3 -12c0,-1 1,-1 2,-1zm55 18c2,0 4,3 3,5 0,2 -3,4 -5,3 -3,0 -4,-3 -4,-5 1,-2 3,-4 6,-3z"/><path class="fil1" d="M184 0l129 0 0 189c-5,-3 -10,-4 -15,-3l0 0c-18,1 -26,16 -42,17 -19,1 -25,-18 -46,-17 -11,0 -18,6 -26,11l0 -197zm19 68l23 0 0 35 -23 0 0 -35zm34 0l23 0 0 35 -23 0 0 -35zm34 0l23 0 0 35 -23 0 0 -35zm-68 -51l23 0 0 35 -23 0 0 -35zm34 0l23 0 0 35 -23 0 0 -35zm34 0l23 0 0 35 -23 0 0 -35z"/><path class="fil2" d="M0 247l0 -25c13,-4 20,-15 34,-15 19,-1 25,18 46,17 18,-1 26,-17 42,-17 19,-1 25,18 46,17l0 0c18,-1 26,-17 42,-17 19,-1 25,18 46,17 18,-1 26,-17 42,-17 5,-1 9,0 14,3l0 37 -312 0z"/><path class="fil2" d="M0 207c11,-4 19,-15 34,-15 21,-1 27,17 46,17 16,-1 24,-17 42,-17l0 0c21,-1 27,17 46,17 16,-1 24,-17 42,-17 21,-1 27,17 46,17 16,-1 24,-17 42,-17l0 0c5,-1 9,0 14,2l0 10c-5,-2 -9,-3 -14,-3l0 0c-18,1 -26,17 -42,17 -19,1 -25,-18 -46,-17 -18,1 -26,17 -42,17 -19,1 -25,-18 -46,-17l0 0c-18,1 -26,17 -42,17 -19,1 -25,-18 -46,-17 -15,1 -23,11 -34,16l0 -10z"/><path class="fil1" d="M164 102c0,37 0,65 0,102 -3,0 -5,-1 -8,-3l0 -106 8 7z"/><path class="fil1" d="M153 95l0 105c-9,-5 -17,-14 -31,-14l0 0c-4,1 -7,1 -10,2l0 -93 41 0zm-36 68l7 0 0 11 -7 0 0 -11zm12 0l7 0 0 11 -7 0 0 -11zm12 0l7 0 0 11 -7 0 0 -11zm-24 -20l7 0 0 12 -7 0 0 -12zm12 0l7 0 0 12 -7 0 0 -12zm12 0l7 0 0 12 -7 0 0 -12zm-24 -19l7 0 0 11 -7 0 0 -11zm12 0l7 0 0 11 -7 0 0 -11zm12 0l7 0 0 11 -7 0 0 -11zm-24 -20l7 0 0 12 -7 0 0 -12zm12 0l7 0 0 12 -7 0 0 -12zm12 0l7 0 0 12 -7 0 0 -12z"/></g><text x="0" y="262" fill="#000000" font-size="5px" font-weight="bold" font-family="'Helvetica Neue', Helvetica, Arial-Unicode, Arial, Sans-serif">Created by ani</text><text x="0" y="267" fill="#000000" font-size="5px" font-weight="bold" font-family="'Helvetica Neue', Helvetica, Arial-Unicode, Arial, Sans-serif">from the Noun Project</text></svg>