<svg xmlns="http://www.w3.org/2000/svg" xmlns:xlink="http://www.w3.org/1999/xlink" version="1.1" x="0px" y="0px" viewBox="0 0 48 60" enable-background="new 0 0 48 48" xml:space="preserve"><g><g><path d="M19.837,25.729L28.78,7.186c0.025-0.049,0.066-0.082,0.096-0.125l-10.72-5.171c-1.586-0.764-3.34-1.168-5.074-1.168    c-4.16,0-7.804,2.197-9.51,5.733c-1.215,2.517-1.301,5.394-0.245,8.102c1.047,2.684,3.089,4.868,5.751,6.152l10.721,5.171    C19.814,25.828,19.814,25.777,19.837,25.729z"/><path d="M41.521,13.16L30.794,7.986c-0.016,0.051-0.014,0.104-0.039,0.153l-8.943,18.543c-0.023,0.047-0.057,0.084-0.086,0.127    l10.717,5.17c1.584,0.764,3.338,1.168,5.072,1.168c4.158,0,7.803-2.197,9.51-5.732C49.526,22.228,47.058,15.833,41.521,13.16z"/></g><g><path d="M20.054,41.643c0.805-1.498,1.263-3.207,1.263-5.023c0-5.877-4.783-10.658-10.662-10.658    c-3.346,0-6.334,1.555-8.289,3.975L20.054,41.643z"/><path d="M1.259,31.6c-0.803,1.498-1.262,3.205-1.262,5.02c0,5.878,4.781,10.66,10.658,10.66c3.347,0,6.334-1.553,8.291-3.972    L1.259,31.6z"/></g></g><text x="0" y="63" fill="#000000" font-size="5px" font-weight="bold" font-family="'Helvetica Neue', Helvetica, Arial-Unicode, Arial, Sans-serif">Created by Creative Stall</text><text x="0" y="68" fill="#000000" font-size="5px" font-weight="bold" font-family="'Helvetica Neue', Helvetica, Arial-Unicode, Arial, Sans-serif">from the Noun Project</text></svg>