<svg xmlns="http://www.w3.org/2000/svg" xmlns:xlink="http://www.w3.org/1999/xlink" version="1.1" x="0px" y="0px" viewBox="0 0 100 125" enable-background="new 0 0 100 100" xml:space="preserve"><g><path d="M34.258,30.256c0,0-0.097,0.056-0.278,0.16c-0.171,0.102-0.448,0.268-0.781,0.491c-0.336,0.221-0.744,0.499-1.185,0.843   c-0.446,0.338-0.938,0.738-1.421,1.208c-0.501,0.461-0.968,1.003-1.407,1.596c-0.373,0.601-0.785,1.266-0.855,1.947   c-0.083,0.67-0.041,1.39,0.427,2.047c0.143,0.326,0.503,0.727,0.789,1.116l0.907,1.141c1.225,1.542,2.536,3.094,3.403,4.835   c0.448,0.857,0.723,1.782,0.849,2.671c0.075,0.899-0.01,1.758-0.27,2.484c-0.223,0.743-0.609,1.328-0.916,1.854   c-0.386,0.474-0.683,0.914-0.99,1.221c-0.611,0.612-0.961,0.962-0.961,0.962s0.311-0.381,0.856-1.049   c0.271-0.332,0.52-0.795,0.846-1.287c0.244-0.538,0.553-1.13,0.688-1.832c0.172-0.689,0.163-1.46,0.022-2.237   c-0.194-0.773-0.51-1.556-0.998-2.296c-0.94-1.497-2.337-2.862-3.711-4.271l-1.045-1.074c-0.332-0.372-0.678-0.661-1.023-1.179   c-0.759-0.874-1.087-2.171-1.031-3.311c0.033-1.188,0.508-2.149,0.936-3.017c0.483-0.827,1.002-1.555,1.532-2.154   c0.519-0.617,1.035-1.129,1.504-1.567c0.466-0.444,0.891-0.802,1.248-1.093c0.357-0.295,0.642-0.508,0.853-0.665   c0.206-0.148,0.315-0.227,0.315-0.227c0.712-0.512,1.704-0.351,2.217,0.361c0.512,0.712,0.351,1.704-0.361,2.217   c-0.043,0.031-0.087,0.06-0.132,0.086L34.258,30.256z"/></g><g><path d="M44.291,30.256c0,0-0.097,0.056-0.278,0.16c-0.171,0.102-0.448,0.268-0.781,0.491c-0.336,0.221-0.744,0.499-1.185,0.843   c-0.446,0.338-0.938,0.738-1.421,1.208c-0.501,0.461-0.968,1.003-1.407,1.596c-0.374,0.601-0.785,1.266-0.855,1.947   c-0.083,0.67-0.041,1.39,0.427,2.047c0.143,0.326,0.503,0.727,0.789,1.116l0.907,1.141c1.225,1.542,2.536,3.094,3.403,4.835   c0.448,0.857,0.723,1.782,0.849,2.671c0.075,0.899-0.01,1.758-0.27,2.484c-0.223,0.743-0.609,1.328-0.916,1.854   c-0.386,0.474-0.683,0.914-0.99,1.221c-0.611,0.612-0.961,0.962-0.961,0.962s0.311-0.381,0.856-1.049   c0.271-0.332,0.52-0.795,0.846-1.287c0.244-0.538,0.553-1.13,0.688-1.832c0.172-0.689,0.163-1.46,0.022-2.237   c-0.194-0.773-0.51-1.556-0.998-2.296c-0.94-1.497-2.337-2.862-3.711-4.271l-1.045-1.074c-0.332-0.372-0.678-0.661-1.023-1.179   c-0.759-0.874-1.087-2.171-1.031-3.311c0.033-1.188,0.508-2.149,0.936-3.017c0.483-0.827,1.002-1.555,1.532-2.154   c0.519-0.617,1.035-1.129,1.504-1.567c0.466-0.444,0.891-0.802,1.248-1.093c0.357-0.295,0.642-0.508,0.853-0.665   c0.206-0.148,0.315-0.227,0.315-0.227c0.712-0.512,1.704-0.351,2.217,0.361c0.512,0.712,0.351,1.704-0.361,2.217   c-0.043,0.031-0.087,0.06-0.132,0.086L44.291,30.256z"/></g><g><path d="M54.324,30.256c0,0-0.097,0.056-0.278,0.16c-0.171,0.102-0.448,0.268-0.781,0.491c-0.336,0.221-0.744,0.499-1.185,0.843   c-0.446,0.338-0.938,0.738-1.421,1.208c-0.501,0.461-0.968,1.003-1.406,1.596c-0.374,0.601-0.785,1.266-0.855,1.947   c-0.083,0.67-0.041,1.39,0.427,2.047c0.143,0.326,0.503,0.727,0.789,1.116l0.907,1.141c1.225,1.542,2.536,3.094,3.403,4.835   c0.448,0.857,0.723,1.782,0.849,2.671c0.075,0.899-0.01,1.758-0.27,2.484c-0.223,0.743-0.609,1.328-0.916,1.854   c-0.386,0.474-0.683,0.914-0.99,1.221c-0.611,0.612-0.961,0.962-0.961,0.962s0.311-0.381,0.856-1.049   c0.271-0.332,0.52-0.795,0.846-1.287c0.244-0.538,0.553-1.13,0.688-1.832c0.172-0.689,0.163-1.46,0.022-2.237   c-0.194-0.773-0.51-1.556-0.998-2.296c-0.94-1.497-2.337-2.862-3.711-4.271l-1.045-1.074c-0.332-0.372-0.678-0.661-1.022-1.179   c-0.759-0.874-1.087-2.171-1.031-3.311c0.033-1.188,0.508-2.149,0.936-3.017c0.483-0.827,1.002-1.555,1.532-2.154   c0.519-0.617,1.035-1.129,1.504-1.567c0.466-0.444,0.891-0.802,1.248-1.093c0.357-0.295,0.642-0.508,0.853-0.665   c0.206-0.148,0.315-0.227,0.315-0.227c0.712-0.512,1.704-0.351,2.217,0.361c0.512,0.712,0.351,1.704-0.361,2.217   c-0.043,0.031-0.087,0.06-0.132,0.086L54.324,30.256z"/></g><g><path d="M71.246,56.192c0,0-0.989,1.099-2.952,2.748c-0.984,0.821-2.209,1.784-3.677,2.802c-1.456,1.041-3.176,2.096-5.093,3.196   c-1.937,1.054-4.071,2.163-6.43,3.119c-2.345,0.989-4.892,1.891-7.606,2.568c-5.421,1.409-11.504,1.743-17.466,1.215   c-1.493-0.123-2.975-0.355-4.446-0.591c-0.752-0.147-1.502-0.293-2.25-0.439c-0.704-0.194-1.336-0.322-2.094-0.569   c-1.527-0.461-2.904-1.036-4.258-1.748c-1.336-0.738-2.588-1.624-3.681-2.678c-2.179-2.127-3.541-5.002-3.727-7.783   c-0.163-2.785,0.613-5.327,1.77-7.309c1.13-2.017,2.618-3.521,4.036-4.654c1.43-1.133,2.83-1.878,4.01-2.391   c1.191-0.493,2.155-0.784,2.819-0.947c0.664-0.157,1.018-0.241,1.018-0.241c0.142-0.034,0.284,0.054,0.318,0.196   c0.031,0.132-0.043,0.265-0.168,0.309l-0.018,0.006c0,0-0.333,0.119-0.957,0.344c-0.62,0.228-1.513,0.613-2.583,1.203   c-1.054,0.617-2.295,1.436-3.502,2.598c-1.197,1.16-2.398,2.646-3.2,4.482c-0.84,1.807-1.234,3.98-0.904,6.11   c0.337,2.134,1.512,4.142,3.309,5.642c0.912,0.741,1.964,1.352,3.082,1.885c1.131,0.5,2.38,0.92,3.578,1.195   c0.593,0.159,1.362,0.27,2.038,0.408l1.965,0.26c1.357,0.147,2.725,0.237,4.095,0.252c5.494,0.122,10.909-0.95,15.92-2.085   c2.509-0.587,4.931-1.224,7.217-1.912c2.274-0.719,4.438-1.411,6.405-2.157c1.987-0.7,3.776-1.442,5.384-2.077   c1.595-0.659,2.991-1.248,4.134-1.756c2.292-1.007,3.601-1.627,3.601-1.627c0.134-0.064,0.295-0.006,0.359,0.128   C71.338,55.997,71.316,56.114,71.246,56.192z"/></g><path d="M89.984,40.853c-1.106-1.033-2.489-1.679-3.967-1.884c-1.466-1.344-4.005-2.171-6.953-2.067  c-2.12,0.073-4.103,0.647-5.586,1.589c-1.568,0.998-2.406,2.34-2.358,3.727c0.084,2.444,2.866,4.385,6.645,4.723  c0.176,1.689,0.931,3.325,2.267,4.572c0.452,0.422,0.954,0.775,1.486,1.065c-0.361,1.607-0.413,3.191-0.113,4.559  c0.399,1.815,1.345,3.053,2.665,3.484c0.325,0.106,0.665,0.16,1.014,0.16c2.468,0,5.042-2.602,6.258-6.327  c0.64-1.958,0.795-3.948,0.459-5.633C92.844,46.126,92.224,42.944,89.984,40.853z M72.176,42.126  c-0.034-0.999,0.63-1.982,1.869-2.771c1.326-0.843,3.121-1.344,5.055-1.411c0.145-0.005,0.288-0.007,0.431-0.007  c1.763,0,3.376,0.388,4.588,1.016c-1.688,0.209-3.272,1.002-4.443,2.255c-1.206,1.293-1.85,2.911-1.944,4.551  C74.631,45.437,72.238,43.937,72.176,42.126z M90.337,54.127c-1.169,3.578-3.917,6.154-5.939,5.491  c-0.95-0.31-1.646-1.272-1.961-2.706c-0.255-1.161-0.232-2.507,0.054-3.889c0.798,0.294,1.646,0.453,2.516,0.453c0,0,0,0,0.001,0  c2.014,0,3.958-0.844,5.332-2.316c0.207-0.222,0.392-0.456,0.566-0.696C90.926,51.625,90.746,52.877,90.337,54.127z"/><text x="0" y="115" fill="#000000" font-size="5px" font-weight="bold" font-family="'Helvetica Neue', Helvetica, Arial-Unicode, Arial, Sans-serif">Created by Felisberto Piazza</text><text x="0" y="120" fill="#000000" font-size="5px" font-weight="bold" font-family="'Helvetica Neue', Helvetica, Arial-Unicode, Arial, Sans-serif">from the Noun Project</text></svg>