<svg xmlns="http://www.w3.org/2000/svg" xmlns:xlink="http://www.w3.org/1999/xlink" version="1.1" x="0px" y="0px" viewBox="0 0 100 125" enable-background="new 0 0 100 100" xml:space="preserve"><path d="M14.65,8.954c0.818-0.369,9.089-4.645,9.916-4.935s1.925-0.312,2.527,0.685c0.374,0.619,2.003,3.759,2.003,3.759  s1.038,2.007,1.104,2.138c0.096,0.199,0.122,0.477-0.06,0.569s-12.885,6.558-13.072,6.652c-0.187,0.094-0.379,0.002-0.513-0.254  c-0.645-1.236-2.563-4.917-3.009-5.773C13.01,10.761,13.175,9.621,14.65,8.954z"/><path d="M59.695,65.57c0,1.904-1.543,3.448-3.448,3.448H45.906c-1.904,0-3.448-1.544-3.448-3.448V51.705  c0-1.904,1.543-3.448,3.448-3.448h10.341c1.904,0,3.448,1.543,3.448,3.448V65.57z"/><path d="M76.697,0C69.75,0.01,52.283,0.042,47.982,0c-4.301-0.041-6.741,3.598-8.644,6.452s-3.557,6.824-3.557,6.824  s-0.978,0.481-2.48,1.223c-0.564-0.584-2.082-1.352-2.463-1.163c-3.979,1.966-9.561,4.691-12.408,6.173  c-0.441,0.23-0.715,2.08-0.57,2.762c0.015-0.008,0.026-0.014,0,0.001c-2.068,1.199-3.337,4.032-3.337,5.897  c0,1.158,0,57.204,0,60.306c0,6.011,4.32,11.401,11.723,11.401c7.402,0,45.619,0.124,49.465,0.124c5.864,0,11.02-5.334,11.02-11.475  c0-3.805,0-75.819,0-77.763C86.733,5.791,82.556,0,76.697,0z M44.963,5.294c1.241-2.109,3.792-2.812,5.032-2.812s18.748,0,18.748,0  s2.316-0.166,3.143,1.199c0.496,0.662,0.291,1.737,0,2.523c-0.152,0.411-1.737,2.747-3.805,4.466  c-1.356,1.127-2.73,1.861-5.997,2.44c-3.267,0.579-10.256,0.372-13.44,0.372c-3.185,0-5.749,0.951-5.749,0.951l-3.019,0.993  C39.876,15.427,43.996,6.939,44.963,5.294z M62.722,49.788v17.698c0,0.724-0.172,1.405-0.47,2.015L78,85.247  c0.583,0.583,0.583,1.529,0,2.113c-0.583,0.583-1.529,0.583-2.113,0L60.14,71.613c-0.608,0.297-1.291,0.47-2.014,0.47h-14.25  c-0.723,0-1.405-0.172-2.014-0.47L26.114,87.36c-0.583,0.583-1.53,0.583-2.113,0c-0.583-0.583-0.583-1.529,0-2.113L39.748,69.5  c-0.298-0.609-0.47-1.291-0.47-2.015V49.788c0-0.724,0.172-1.405,0.47-2.014L24.001,32.027c-0.583-0.583-0.583-1.529,0-2.113  c0.583-0.583,1.529-0.583,2.113,0l15.747,15.747c0.609-0.297,1.291-0.469,2.014-0.469h14.25c0.724,0,1.406,0.172,2.014,0.47  l15.747-15.747c0.583-0.583,1.529-0.583,2.113,0s0.583,1.529,0,2.113L62.252,47.774C62.55,48.383,62.722,49.064,62.722,49.788z"/><text x="0" y="115" fill="#000000" font-size="5px" font-weight="bold" font-family="'Helvetica Neue', Helvetica, Arial-Unicode, Arial, Sans-serif">Created by Mitchell Geere</text><text x="0" y="120" fill="#000000" font-size="5px" font-weight="bold" font-family="'Helvetica Neue', Helvetica, Arial-Unicode, Arial, Sans-serif">from the Noun Project</text></svg>