<svg xmlns="http://www.w3.org/2000/svg" xmlns:xlink="http://www.w3.org/1999/xlink" version="1.1" x="0px" y="0px" viewBox="0 0 1000 1250" style="enable-background:new 0 0 1000 1000;" xml:space="preserve"><style type="text/css">
	.st0{stroke:#B4B4B5;stroke-miterlimit:10;}
</style><path class="st0" d="M968.4,91.4L893,145l-18,148l-80,40l10,150l-106-19.1l-91.7,102.3l-18.1,173.3L459,733  c0,0-110.4,113.6-362,117.7c-36,0.6-61.3,0.8-77,0.8c-11,0-20,9-20,20V925c0,41.4,33.6,75,75,75h850c41.4,0,75-33.6,75-75V107.7  C1000,91.5,981.7,82,968.4,91.4z"/><polygon class="st0" points="697,207 627,261 647,349 731,311 743,245 "/><polygon class="st0" points="431,500 349,649 421,713 547,691 547,500 "/><polygon class="st0" points="547,454 577,489 627,471 627,433 597,419 567,427 "/><polygon class="st0" points="707,359 685,391 696,419 729,433 729,396 "/><polygon class="st0" points="813,243 823,265 791,278 773,260.5 787,233 "/><polygon class="st0" points="595,349 587,365 595,377 617,363 617,349 "/><polygon class="st0" points="317,748.3 334.6,726.4 322,706.9 300,712 298.3,742.8 "/><polygon class="st0" points="377.7,724 390.7,725.3 396,731.3 393,742.3 377.7,746.7 371,735.3 "/><text x="0" y="1015" fill="#000000" font-size="5px" font-weight="bold" font-family="'Helvetica Neue', Helvetica, Arial-Unicode, Arial, Sans-serif">Created by Yang LIU</text><text x="0" y="1020" fill="#000000" font-size="5px" font-weight="bold" font-family="'Helvetica Neue', Helvetica, Arial-Unicode, Arial, Sans-serif">from the Noun Project</text></svg>