<svg xmlns="http://www.w3.org/2000/svg" xmlns:xlink="http://www.w3.org/1999/xlink" version="1.1" x="0px" y="0px" viewBox="0 0 100 125" enable-background="new 0 0 100 100" xml:space="preserve"><g><g><g><path d="M73,95H27V82.3c0-5.8-2.2-6.1-6.9-6.9c-5.1-0.8-12.9-2.1-12.9-14.9V47.8C7.2,24.2,26.4,5,50,5s42.8,19.2,42.8,42.8v12.7     c0,12.8-7.8,14-12.9,14.9c-4.8,0.8-6.9,1.1-6.9,6.9V95z M32.8,89.3h34.5v-7c0-10.7,7.1-11.8,11.8-12.5c5-0.8,8.1-1.3,8.1-9.2     V47.8c0-20.4-16.6-37.1-37.1-37.1S12.9,27.4,12.9,47.8v12.7c0,7.9,3,8.4,8.1,9.2c4.7,0.7,11.8,1.9,11.8,12.5V89.3z"/><rect x="37" y="80.5" width="5.7" height="11.7"/><rect x="47.2" y="80.5" width="5.7" height="11.7"/><rect x="57.3" y="80.5" width="5.7" height="11.7"/></g><g><path d="M46.4,51.5c0,6.8-5.5,12.4-12.4,12.4c-6.8,0-12.4-5.5-12.4-12.4c0-6.8,5.5-12.4,12.4-12.4C40.9,39.1,46.4,44.7,46.4,51.5     z"/><path d="M78.3,51.5c0,6.8-5.5,12.4-12.4,12.4c-6.8,0-12.4-5.5-12.4-12.4c0-6.8,5.5-12.4,12.4-12.4C72.8,39.1,78.3,44.7,78.3,51.5     z"/></g></g><polygon points="42.1,71.8 50,63.8 57.9,71.8  "/></g><text x="0" y="115" fill="#000000" font-size="5px" font-weight="bold" font-family="'Helvetica Neue', Helvetica, Arial-Unicode, Arial, Sans-serif">Created by Kyle Tezak</text><text x="0" y="120" fill="#000000" font-size="5px" font-weight="bold" font-family="'Helvetica Neue', Helvetica, Arial-Unicode, Arial, Sans-serif">from the Noun Project</text></svg>