<svg xmlns="http://www.w3.org/2000/svg" xmlns:xlink="http://www.w3.org/1999/xlink" xml:space="preserve" version="1.1" style="shape-rendering:geometricPrecision;text-rendering:geometricPrecision;image-rendering:optimizeQuality;" viewBox="0 0 4.898 5.82125" x="0px" y="0px" fill-rule="evenodd" clip-rule="evenodd"><defs><style type="text/css">
   
    .fil0 {fill:black;fill-rule:nonzero}
   
  </style></defs><g><path class="fil0" d="M1.018 0.676l0.217 -0.364c0.171,-0.288 0.363,-0.312 0.552,-0.312 0.163,0 1,0 1.22,0 -0.167,0.003 -0.275,0.081 -0.348,0.16 -0.049,0.052 -0.079,0.105 -0.101,0.136 -0.007,0.011 -0.558,0.929 -0.558,0.929l0.434 0.243 -1.24 0.029 -0.583 -1.05 0.407 0.229z"/><path class="fil0" d="M3.016 0c0.246,0 0.405,0.083 0.533,0.277l0.503 0.842 -1.007 0.563 -0.664 -1.096c0,0 0.158,-0.264 0.177,-0.29 0.051,-0.074 0.172,-0.296 0.458,-0.296z"/><path class="fil0" d="M4.49 1.896l0.218 0.364c0.17,0.286 0.095,0.46 0.002,0.619 -0.083,0.136 -0.5,0.839 -0.611,1.024 0.081,-0.141 0.066,-0.272 0.031,-0.372 -0.022,-0.067 -0.054,-0.119 -0.071,-0.153 -0.006,-0.013 -0.551,-0.933 -0.551,-0.933l-0.434 0.243 0.594 -1.055 1.23 0.035 -0.408 0.228z"/><path class="fil0" d="M4.095 3.91c-0.123,0.207 -0.277,0.299 -0.514,0.31l-1.004 0 0 -1.127 1.311 -0.008c0,0 0.157,0.267 0.171,0.293 0.041,0.08 0.18,0.292 0.036,0.532z"/><path class="fil0" d="M1.7 4.199l-0.434 0.001c-0.342,0 -0.46,-0.15 -0.553,-0.308 -0.083,-0.137 -0.5,-0.838 -0.611,-1.024 0.086,0.139 0.21,0.191 0.315,0.212 0.073,0.015 0.135,0.014 0.173,0.016 0.015,0.001 1.11,0.004 1.11,0.004l0 -0.485 0.646 1.027 -0.646 1.015 0 -0.458z"/><path class="fil0" d="M0.097 2.861c-0.123,-0.207 -0.128,-0.382 -0.019,-0.587l0.502 -0.842 1.007 0.563 -0.649 1.105c0,0 -0.316,-0.001 -0.348,-0.004 -0.093,-0.005 -0.35,0.005 -0.493,-0.235z"/></g><text x="0" y="19.657" fill="#000000" font-size="5px" font-weight="bold" font-family="'Helvetica Neue', Helvetica, Arial-Unicode, Arial, Sans-serif">Created by RHADZONY STORCH JUNIOR</text><text x="0" y="24.657" fill="#000000" font-size="5px" font-weight="bold" font-family="'Helvetica Neue', Helvetica, Arial-Unicode, Arial, Sans-serif">from the Noun Project</text></svg>