<svg xmlns="http://www.w3.org/2000/svg" xmlns:xlink="http://www.w3.org/1999/xlink" version="1.1" x="0px" y="0px" viewBox="0 0 100 125" enable-background="new 0 0 100 100" xml:space="preserve"><path d="M34.319,46.852c11.558,0,20.926-9.368,20.926-20.925C55.245,14.368,45.877,5,34.319,5c-11.56,0-20.927,9.368-20.927,20.927  C13.392,37.484,22.759,46.852,34.319,46.852z M23.107,22.188h7.473v-7.472h7.475v7.472h7.474v7.474h-7.474v7.475H30.58v-7.475  h-7.473V22.188z"/><path d="M41.851,55.47H23.228l-6.832-6.834c-1.887-1.887-4.947-1.887-6.833,0c-1.887,1.888-1.887,4.946,0,6.834l7.272,7.271v27.428  c0,2.668,2.162,4.831,4.832,4.831c2.668,0,4.831-2.163,4.831-4.831V78.311H55.05v11.858c0,2.668,2.162,4.831,4.831,4.831  c2.667,0,4.831-2.163,4.831-4.831V71.925c0-1.995,0.421-3.571,1.008-4.804L49.963,51.364C47.329,53.725,44.583,55.47,41.851,55.47z"/><path d="M89.51,46.453c-1.195-0.883-3.171-1.296-4.639-1.238c-0.842-5.723-4.002-8.315-7.303-9.457  c-0.619-4.479-2.588-9.338-5.063-9.338c-2.488,0-4.466,4.9-5.072,9.426c-4.244,1.614-7.668,5.107-10.791,8.543  c-1.322,1.453-2.717,3.029-4.158,4.525l15.363,15.363c0.254-0.227,0.491-0.412,0.7-0.563c5.979-4.338,14.892,0.173,20.42-4.896  C92.034,56.008,93.299,49.25,89.51,46.453z"/><text x="0" y="115" fill="#000000" font-size="5px" font-weight="bold" font-family="'Helvetica Neue', Helvetica, Arial-Unicode, Arial, Sans-serif">Created by David</text><text x="0" y="120" fill="#000000" font-size="5px" font-weight="bold" font-family="'Helvetica Neue', Helvetica, Arial-Unicode, Arial, Sans-serif">from the Noun Project</text></svg>