<?xml version="1.0" encoding="UTF-8" standalone="no"?>
<svg
   xmlns:dc="http://purl.org/dc/elements/1.1/"
   xmlns:cc="http://creativecommons.org/ns#"
   xmlns:rdf="http://www.w3.org/1999/02/22-rdf-syntax-ns#"
   xmlns:svg="http://www.w3.org/2000/svg"
   xmlns="http://www.w3.org/2000/svg"
   xmlns:sodipodi="http://sodipodi.sourceforge.net/DTD/sodipodi-0.dtd"
   xmlns:inkscape="http://www.inkscape.org/namespaces/inkscape"
   version="1.1"
   x="0px"
   y="0px"
   viewBox="0 0 70.019287 83.063118"
   enable-background="new 0 0 100 100"
   xml:space="preserve"
   id="svg34"
   sodipodi:docname="noun_Medicine_32498.svg"
   width="70.019287"
   height="83.063118"
   inkscape:export-filename="/home/javier/Imaginary/Tech/Transcendo/Mesh Hackathon/ui/icons/noun_Medicine_32498.svg.png"
   inkscape:export-xdpi="41.472"
   inkscape:export-ydpi="41.472"
   inkscape:version="0.92.2 2405546, 2018-03-11"><metadata
     id="metadata40"><rdf:RDF><cc:Work
         rdf:about=""><dc:format>image/svg+xml</dc:format><dc:type
           rdf:resource="http://purl.org/dc/dcmitype/StillImage" /><dc:title></dc:title></cc:Work></rdf:RDF></metadata><defs
     id="defs38" /><sodipodi:namedview
     pagecolor="#ffffff"
     bordercolor="#666666"
     borderopacity="1"
     objecttolerance="10"
     gridtolerance="10"
     guidetolerance="10"
     inkscape:pageopacity="0"
     inkscape:pageshadow="2"
     inkscape:window-width="1366"
     inkscape:window-height="739"
     id="namedview36"
     showgrid="false"
     fit-margin-top="0"
     fit-margin-left="0"
     fit-margin-right="0"
     fit-margin-bottom="0"
     inkscape:zoom="1.888"
     inkscape:cx="35.010187"
     inkscape:cy="29.031935"
     inkscape:window-x="0"
     inkscape:window-y="0"
     inkscape:window-maximized="1"
     inkscape:current-layer="svg34" /><path
     d="m 37.220187,17.891182 c 0.023,-1.404 0.089,-3 0.072,-4.596 0,-0.043 -10e-4,-0.087 0.003,-0.13 0.02,-0.214 0.051,-0.251 0.268,-0.213 0.269,0.047 0.538,0.074 0.81,0.061 0.618,-0.031 1.177,-0.225 1.621,-0.664 0.328,-0.324 0.544,-0.732 0.731,-1.149 0.285,-0.634 0.558,-1.2730001 0.832,-1.9120001 0.401,-0.935 0.909,-1.806 1.608,-2.55 0.542,-0.576 1.18,-1.026 1.929,-1.298 0.445,-0.162 0.9,-0.108 1.349,-0.011 0.876,0.189 1.7,0.528 2.509,0.902 1.874,0.866 3.682,1.865 5.535,2.771 1.592,0.779 3.21,1.4930001 4.901,2.0310001 1.173,0.373 2.369,0.663 3.595,0.75 1.425,0.102 2.845,0.043 4.212,-0.456 0.603,-0.22 1.216,-0.399 1.858,-0.474 0.235,-0.028 0.456,-0.003 0.673,0.07 0.214,0.072 0.29,0.191 0.293,0.417 0.003,0.201 -0.064,0.384 -0.148,0.562 -0.23,0.488 -0.561,0.908 -0.947,1.275 -0.771,0.734 -1.649,1.307 -2.661,1.661 -0.598,0.21 -1.21,0.343 -1.845,0.365 -0.314,0.011 -0.349,0.04 -0.296,0.341 0.054,0.308 -0.082,0.503 -0.33,0.642 -0.368,0.206 -0.776,0.272 -1.187,0.318 -1.129,0.128 -2.229,-0.031 -3.312,-0.344 -0.052,-0.015 -0.105,-0.028 -0.157,-0.043 -0.132,-0.036 -0.213,0.013 -0.234,0.147 -0.015,0.096 -0.021,0.194 -0.032,0.291 -0.113,1.01 -0.62,1.481 -1.477,1.65 -0.605,0.119 -1.189,0.013 -1.775,-0.104 -0.234,-0.047 -0.463,-0.117 -0.693,-0.182 -0.394,-0.112 -0.393,-0.114 -0.567,0.242 -0.119,0.244 -0.239,0.487 -0.408,0.703 -0.414,0.529 -0.957,0.797 -1.623,0.84 -0.661,0.042 -1.297,-0.081 -1.924,-0.275 -0.249,-0.077 -0.498,-0.155 -0.749,-0.224 -0.324,-0.09 -0.324,-0.086 -0.48,0.203 -0.052,0.095 -0.105,0.19 -0.164,0.281 -0.418,0.642 -1.042,0.863 -1.768,0.824 -0.898,-0.048 -1.708,-0.387 -2.486,-0.815 -0.076,-0.042 -0.15,-0.088 -0.227,-0.129 -0.452,-0.245 -0.457,-0.247 -0.845,0.107 -0.209,0.19 -0.405,0.394 -0.613,0.585 -0.597,0.546 -1.314,0.687 -2.092,0.596 -1.216,-0.142 -2.37,-0.531 -3.527,-0.907 -0.194,-0.063 -0.237,-0.192 -0.235,-0.373 0.006,-0.53 0.003,-1.062 0.003,-1.786 z"
     id="path2"
     inkscape:connector-curvature="0" /><path
     d="m 32.795187,18.653182 c 0,0.427 -0.005,0.742 0.002,1.057 0.004,0.177 -0.068,0.28 -0.238,0.339 -1.152,0.394 -2.31,0.764 -3.525,0.913 -0.859,0.105 -1.615,-0.108 -2.234,-0.737 -0.168,-0.17 -0.339,-0.337 -0.514,-0.5 -0.303,-0.281 -0.359,-0.296 -0.712,-0.094 -0.463,0.265 -0.938,0.5 -1.437,0.69 -0.461,0.176 -0.939,0.292 -1.428,0.302 -0.799,0.016 -1.433,-0.296 -1.82,-1.032 -0.198,-0.377 -0.202,-0.375 -0.622,-0.253 -0.365,0.106 -0.729,0.215 -1.095,0.316 -0.41,0.113 -0.829,0.154 -1.256,0.159 -0.971,0.011 -1.654,-0.436 -2.111,-1.269 -0.063,-0.114 -0.116,-0.233 -0.172,-0.351 -0.133,-0.282 -0.132,-0.282 -0.444,-0.198 -0.262,0.071 -0.521,0.155 -0.787,0.209 -0.564,0.114 -1.127,0.222 -1.71,0.113 -0.963,-0.179 -1.464,-0.72 -1.542,-1.698 -0.037,-0.467 -0.041,-0.474 -0.476,-0.338 -0.7840005,0.244 -1.5920005,0.348 -2.4060005,0.375 -0.573,0.019 -1.151,-0.031 -1.702,-0.224 -0.122,-0.043 -0.245,-0.092 -0.357,-0.157 -0.235,-0.138 -0.357,-0.326 -0.3,-0.622 0.057,-0.298 0.011,-0.333 -0.299,-0.348 -1.569,-0.075 -2.92,-0.686 -4.117,-1.677 -0.455,-0.377 -0.853,-0.804 -1.167,-1.305 -0.139,-0.222 -0.26,-0.454 -0.308,-0.714 -0.067,-0.361 0.048,-0.52 0.397,-0.623 0.341,-0.099 0.67,-0.014 0.999,0.038 0.419,0.066 0.824,0.195 1.223,0.339 1.063,0.385 2.158,0.548 3.289,0.556 1.595,0.012 3.129,-0.298 4.6400005,-0.765 1.571,-0.485 3.082,-1.122 4.553,-1.8520001 1.605,-0.796 3.194,-1.626 4.8,-2.421 0.963,-0.477 1.93,-0.95 2.962,-1.268 0.427,-0.132 0.86,-0.233 1.304,-0.274 0.449,-0.041 0.856,0.112 1.245,0.318 1.038,0.55 1.803,1.376 2.399,2.375 0.508,0.853 0.871,1.772 1.259,2.6810001 0.179,0.42 0.377,0.83 0.618,1.22 0.439,0.709 1.106,1.014 1.906,1.076 0.237,0.018 0.476,0.007 0.714,-0.036 0.288,-0.052 0.339,-0.009 0.379,0.288 0.019,0.139 0.021,0.281 0.022,0.422 0.006,1.119 0.011,2.238 0.015,3.357 0,0.576 0.09,1.148 0.053,1.613 z"
     id="path4"
     inkscape:connector-curvature="0" /><path
     d="m 27.266187,24.423182 c 0.439,-0.033 0.914,0.022 1.389,0.07 0.262,0.027 0.511,0.115 0.734,0.254 0.762,0.474 1.374,1.093 1.785,1.898 0.015,0.029 0.029,0.059 0.042,0.088 0.272,0.601 0.195,0.831 -0.386,1.125 -0.938,0.475 -1.94,0.609 -2.976,0.534 -0.26,-0.019 -0.51,-0.104 -0.745,-0.225 -0.406,-0.208 -0.819,-0.403 -1.221,-0.619 -0.654,-0.351 -1.359,-0.507 -2.09,-0.572 -0.769,-0.068 -1.539,-0.08 -2.31,-0.073 -0.252,0.002 -0.499,0.037 -0.741,0.098 -0.875,0.22 -1.244,1.094 -0.802,1.889 0.15,0.27 0.359,0.489 0.601,0.678 0.786,0.618 1.677,1.042 2.6,1.403 1.823,0.711 3.718,1.122 5.657,1.344 0.949,0.108 1.9,0.171 2.856,0.196 1.801,0.047 3.6,0.132 5.372,0.506 1.877,0.396 3.716,0.901 5.422,1.807 0.991,0.526 1.866,1.192 2.511,2.127 0.554,0.803 0.86,1.685 0.786,2.665 -0.061,0.806 -0.36,1.541 -0.793,2.219 -0.679,1.061 -1.599,1.882 -2.615,2.604 -0.942,0.669 -1.956,1.212 -2.995,1.712 -0.196,0.095 -0.353,0.096 -0.543,-0.024 -0.515,-0.325 -1.059,-0.598 -1.621,-0.832 -0.117,-0.049 -0.263,-0.083 -0.279,-0.242 -0.018,-0.182 -0.046,-0.371 0.031,-0.546 0.048,-0.107 0.17,-0.127 0.27,-0.168 0.692,-0.287 1.39,-0.561 2.062,-0.894 0.656,-0.325 1.273,-0.714 1.801,-1.221 0.621,-0.596 1.067,-1.299 1.036,-2.202 -0.026,-0.752 -0.375,-1.375 -0.88,-1.912 -0.667,-0.711 -1.496,-1.185 -2.385,-1.553 -0.937,-0.388 -1.908,-0.66 -2.92,-0.768 -0.324,-0.035 -0.65,-0.046 -0.974,-0.065 -1.235,-0.073 -2.466,-0.186 -3.698,-0.285 -1.636,-0.131 -3.26,-0.341 -4.85,-0.766 -1.911,-0.51 -3.731,-1.234 -5.418,-2.275 -1.052,-0.649 -2.01,-1.412 -2.771,-2.394 -0.395,-0.51 -0.703,-1.067 -0.817,-1.719 -0.115,-0.662 0.076,-1.222 0.508,-1.715 0.29,-0.331 0.64,-0.585 1.03,-0.787 0.84,-0.433 1.742,-0.669 2.664,-0.834 0.855,-0.153 1.72,-0.226 2.587,-0.276 0.411,-0.023 0.82,-0.089 1.229,-0.14 0.602,-0.073 1.207,-0.132 1.857,-0.11 z"
     id="path6"
     inkscape:connector-curvature="0" /><path
     d="m 33.634187,29.287182 c 0,-0.38 0.012,-0.761 -0.002,-1.141 -0.067,-1.878 -0.024,-3.758 -0.079,-5.635 -0.044,-1.488 -0.002,-2.976 -0.06,-4.462 -0.06,-1.531 -0.007,-3.063 -0.068,-4.593 -0.055,-1.379 -0.007,-2.759 -0.063,-4.1360001 -0.041,-1.021 -0.045,-2.041 -0.052,-3.061 -10e-4,-0.181 -0.066,-0.303 -0.212,-0.409 -0.813,-0.594 -1.246,-1.408 -1.328,-2.401 -0.057,-0.679 0.114,-1.317 0.475,-1.896 0.623,-0.99900001 1.547,-1.54100001 2.706,-1.55300001062 1.969,-0.0199999994 3.249,1.61300001062 3.273,3.09600001062 0.019,1.134 -0.413,2.024 -1.281,2.717 -0.173,0.138 -0.238,0.285 -0.241,0.497 -0.029,1.629 -0.039,3.258 -0.075,4.8860001 -0.036,1.585 -0.007,3.172 -0.066,4.755 -0.055,1.466 -0.002,2.933 -0.061,4.397 -0.066,1.618 -0.005,3.237 -0.068,4.853 -0.06,1.553 -0.017,3.106 -0.061,4.658 -0.018,0.651 -0.043,1.302 -0.052,1.953 -0.004,0.279 -0.068,0.34 -0.332,0.295 -0.664,-0.113 -1.335,-0.161 -2.003,-0.239 -0.296,-0.034 -0.33,-0.061 -0.332,-0.366 -0.006,-0.739 -0.002,-1.477 -0.002,-2.216 -0.006,0.001 -0.011,0.001 -0.016,0.001 z"
     id="path8"
     inkscape:connector-curvature="0" /><path
     d="m 31.290187,36.182182 c -0.081,0.143 -0.201,0.143 -0.296,0.178 -0.876,0.327 -1.684,0.766 -2.312,1.474 -0.696,0.786 -1.032,1.69 -0.735,2.737 0.22,0.775 0.701,1.389 1.318,1.898 0.754,0.621 1.611,1.058 2.505,1.438 1.72,0.73 3.47,1.383 5.202,2.084 1.233,0.499 2.325,1.225 3.245,2.189 0.755,0.79 1.326,1.695 1.517,2.794 0.19,1.094 0.011,2.14 -0.446,3.144 -0.601,1.322 -1.522,2.392 -2.611,3.332 -0.272,0.234 -0.561,0.446 -0.844,0.665 -0.14,0.109 -0.259,0.119 -0.407,0.003 -0.153,-0.12 -0.325,-0.218 -0.493,-0.316 -0.156,-0.091 -0.235,-0.212 -0.229,-0.397 0.009,-0.293 0.012,-0.587 0.004,-0.88 -0.006,-0.217 0.088,-0.362 0.256,-0.494 0.688,-0.539 1.295,-1.159 1.787,-1.882 0.428,-0.63 0.716,-1.308 0.698,-2.096 -0.019,-0.812 -0.382,-1.461 -0.913,-2.031 -0.776,-0.833 -1.745,-1.389 -2.765,-1.863 -1.134,-0.528 -2.332,-0.892 -3.497,-1.342 -1.759,-0.68 -3.444,-1.504 -4.957,-2.645 -0.926,-0.698 -1.742,-1.502 -2.348,-2.503 -0.418,-0.692 -0.673,-1.439 -0.701,-2.246 -0.025,-0.72 0.172,-1.401 0.519,-2.029 0.394,-0.711 0.933,-1.304 1.571,-1.808 0.138,-0.109 0.274,-0.11 0.427,-0.073 0.707,0.171 1.423,0.304 2.143,0.405 0.526,0.074 1.053,0.139 1.584,0.174 0.254,0.017 0.505,0.058 0.778,0.09 z"
     id="path10"
     inkscape:connector-curvature="0" /><path
     d="m 38.516187,32.514182 c 0.353,-0.014 0.706,-0.047 1.058,-0.065 1.172,-0.061 2.334,-0.203 3.488,-0.41 1.513,-0.272 2.982,-0.692 4.393,-1.304 0.719,-0.312 1.409,-0.678 2.028,-1.166 0.215,-0.17 0.401,-0.365 0.549,-0.596 0.218,-0.338 0.269,-0.701 0.184,-1.092 -0.089,-0.41 -0.334,-0.673 -0.723,-0.809 -0.278,-0.097 -0.565,-0.155 -0.861,-0.162 -0.989,-0.022 -1.976,0.008 -2.957,0.137 -0.61,0.081 -1.175,0.303 -1.717,0.587 -0.337,0.176 -0.676,0.348 -1.014,0.521 -0.335,0.171 -0.689,0.25 -1.066,0.258 -0.938,0.02 -1.839,-0.124 -2.683,-0.552 -0.576,-0.292 -0.663,-0.509 -0.397,-1.094 0.404,-0.889 1.063,-1.552 1.894,-2.048 0.436,-0.261 0.937,-0.263 1.422,-0.289 1.164,-0.062 2.318,0.067 3.471,0.221 0.397,0.053 0.8,0.065 1.199,0.098 1.358,0.112 2.693,0.33 3.958,0.869 0.474,0.202 0.903,0.473 1.27,0.838 0.674,0.67 0.817,1.454 0.499,2.335 -0.221,0.613 -0.582,1.138 -1.018,1.616 -0.963,1.056 -2.117,1.86 -3.371,2.529 -1.338,0.714 -2.741,1.259 -4.201,1.664 -0.174,0.048 -0.33,0.064 -0.497,-0.04 -1.35,-0.841 -2.827,-1.375 -4.351,-1.797 -0.187,-0.052 -0.372,-0.108 -0.558,-0.162 0.001,-0.031 0.001,-0.059 0.001,-0.087 z"
     id="path12"
     inkscape:connector-curvature="0" /><path
     d="m 36.578187,66.805182 c 10e-4,-0.228 0.019,-0.455 0.034,-0.683 0.014,-0.214 0.105,-0.365 0.254,-0.505 0.269,-0.253 0.516,-0.525 0.725,-0.834 0.443,-0.655 0.473,-1.333 0.148,-2.039 -0.178,-0.388 -0.424,-0.735 -0.705,-1.052 -0.777,-0.876 -1.686,-1.594 -2.668,-2.226 -0.803,-0.517 -1.659,-0.95 -2.419,-1.535 -1.094,-0.841 -2.058,-1.801 -2.776,-2.99 -0.582,-0.965 -0.953,-1.994 -0.949,-3.139 0.003,-0.916 0.263,-1.755 0.737,-2.531 0.488,-0.799 1.137,-1.448 1.88,-2.01 0.144,-0.109 0.27,-0.142 0.447,-0.068 0.521,0.216 1.05,0.414 1.577,0.618 0.292,0.113 0.293,0.141 0.325,0.449 0.038,0.363 -0.108,0.575 -0.418,0.759 -0.591,0.352 -1.105,0.803 -1.519,1.36 -0.714,0.96 -0.801,1.988 -0.332,3.075 0.222,0.514 0.537,0.97 0.912,1.381 0.676,0.74 1.423,1.4 2.238,1.985 0.831,0.595 1.7,1.129 2.573,1.659 1.041,0.632 1.959,1.403 2.64,2.428 0.442,0.666 0.703,1.402 0.73,2.199 0.018,0.533 -0.099,1.057 -0.289,1.56 -0.189,0.502 -0.462,0.956 -0.778,1.387 -0.472,0.643 -1.034,1.199 -1.651,1.7 -0.227,0.184 -0.241,0.167 -0.465,-0.024 -0.191,-0.162 -0.279,-0.351 -0.254,-0.6 0.012,-0.106 0.003,-0.215 0.003,-0.324 z"
     id="path14"
     inkscape:connector-curvature="0" /><path
     d="m 36.521187,77.339182 c -0.083,-0.091 -0.072,-0.181 -0.063,-0.265 0.084,-0.791 0.033,-1.584 0.043,-2.376 0.008,-0.597 0.104,-1.188 0.073,-1.787 -0.075,-1.421 -0.614,-2.605 -1.743,-3.497 -0.715,-0.565 -1.445,-1.114 -2.145,-1.697 -0.898,-0.748 -1.701,-1.588 -2.213,-2.658 -0.549,-1.148 -0.607,-2.317 -0.086,-3.494 0.415,-0.937 1.095,-1.66 1.878,-2.298 0.107,-0.087 0.21,-0.105 0.325,-0.025 0.009,0.006 0.019,0.011 0.028,0.017 0.824,0.506 0.654,0.265 0.715,1.167 0.04,0.602 -0.084,1.093 -0.531,1.519 -0.258,0.245 -0.428,0.573 -0.564,0.908 -0.272,0.672 -0.224,1.313 0.19,1.92 0.34,0.498 0.761,0.921 1.223,1.3 0.872,0.716 1.781,1.39 2.629,2.133 1.011,0.886 1.66,1.994 1.805,3.36 0.22,2.065 -0.362,3.928 -1.431,5.667 -0.017,0.027 -0.039,0.053 -0.062,0.075 -0.015,0.012 -0.038,0.017 -0.071,0.031 z"
     id="path16"
     inkscape:connector-curvature="0" /><path
     d="m 36.255187,38.498182 c -0.072,1.984 -0.07,3.968 -0.073,5.953 0,0.033 10e-4,0.065 -0.002,0.098 -0.018,0.269 -0.072,0.316 -0.324,0.221 -0.599,-0.225 -1.191,-0.467 -1.789,-0.696 -0.163,-0.063 -0.249,-0.164 -0.237,-0.342 0.002,-0.032 -0.001,-0.065 -0.001,-0.098 -0.029,-2.114 -0.085,-4.228 -0.069,-6.343 0.002,-0.228 10e-4,-0.455 -0.027,-0.682 -0.017,-0.138 0.031,-0.24 0.195,-0.228 0.67,0.05 1.342,0.058 2.008,0.148 0.306,0.041 0.316,0.061 0.318,0.374 0.004,0.532 10e-4,1.063 10e-4,1.595 z"
     id="path18"
     inkscape:connector-curvature="0" /><path
     d="m 36.118187,49.864182 c -0.1,1.809 -0.033,3.633 -0.076,5.454 -0.012,0.531 -0.036,1.062 -0.047,1.593 -0.005,0.266 -0.047,0.284 -0.282,0.144 -0.523,-0.311 -1.009,-0.677 -1.505,-1.027 -0.193,-0.136 -0.243,-0.31 -0.243,-0.531 0.002,-0.955 0.019,-1.911 -0.013,-2.864 -0.044,-1.312 -0.053,-2.624 -0.057,-3.937 -10e-4,-0.524 0.003,-0.527 0.503,-0.326 0.453,0.182 0.896,0.387 1.34,0.589 0.289,0.132 0.419,0.32 0.38,0.632 -0.01,0.087 0,0.175 0,0.273 z"
     id="path20"
     inkscape:connector-curvature="0" /><path
     d="m 36.385187,80.318182 c -0.265,-0.117 -0.447,-0.302 -0.643,-0.461 -1.256,-1.021 -2.262,-2.245 -2.965,-3.709 -0.465,-0.968 -0.736,-1.988 -0.85,-3.058 -0.063,-0.59 -0.036,-1.17 0.043,-1.751 0.108,-0.792 0.439,-1.495 0.892,-2.145 0.059,-0.084 0.096,-0.207 0.234,-0.197 0.1,0.007 0.313,0.214 0.333,0.328 0.015,0.085 0.015,0.173 0.015,0.259 10e-4,1.14 0.025,2.281 -0.004,3.42 -0.036,1.417 0.352,2.724 0.938,3.988 0.499,1.078 1.14,2.072 1.85,3.022 0.062,0.083 0.153,0.153 0.157,0.304 z"
     id="path22"
     inkscape:connector-curvature="0" /><path
     d="m 35.920187,63.903182 c 0,0.575 0.006,1.151 -0.002,1.726 -0.005,0.336 -0.028,0.672 -0.051,1.007 -0.014,0.199 -0.08,0.233 -0.246,0.103 -0.47,-0.368 -0.929,-0.75 -1.394,-1.123 -0.139,-0.112 -0.132,-0.264 -0.133,-0.416 -0.002,-0.738 0.012,-1.477 -0.01,-2.215 -0.024,-0.792 -0.056,-1.583 -0.052,-2.375 0,-0.054 -0.002,-0.109 0,-0.163 0.009,-0.27 0.051,-0.295 0.278,-0.144 0.497,0.332 0.972,0.692 1.416,1.094 0.149,0.134 0.212,0.286 0.21,0.486 -0.007,0.673 -0.003,1.346 -0.003,2.019 -0.004,10e-4 -0.008,10e-4 -0.013,10e-4 z"
     id="path24"
     inkscape:connector-curvature="0" /><path
     d="m 35.739187,77.837182 c -0.132,-0.016 -0.157,-0.081 -0.187,-0.136 -0.574,-1.053 -1.081,-2.132 -1.289,-3.327 -0.017,-0.096 -0.035,-0.193 -0.04,-0.29 -0.062,-1.302 -0.063,-2.605 -0.066,-3.908 0,-0.011 -10e-4,-0.022 0,-0.033 0.013,-0.081 -0.03,-0.191 0.076,-0.227 0.081,-0.028 0.133,0.055 0.192,0.1 0.74,0.557 1.142,1.319 1.341,2.205 0.036,0.161 0.036,0.323 0.035,0.486 -0.004,1.271 -0.009,2.542 -0.012,3.813 0,0.434 -0.072,0.864 -0.05,1.317 z"
     id="path26"
     inkscape:connector-curvature="0" /><path
     d="m 34.329187,79.620182 c 0.243,0.126 0.381,0.327 0.568,0.468 0.233,0.175 0.447,0.376 0.672,0.563 0.079,0.065 0.141,0.132 0.131,0.244 -0.049,0.594 -0.101,1.188 -0.327,1.749 -0.073,0.18 -0.138,0.402 -0.362,0.418 -0.243,0.018 -0.287,-0.228 -0.375,-0.393 -0.097,-0.183 -0.143,-0.385 -0.184,-0.587 -0.158,-0.768 -0.188,-1.546 -0.162,-2.327 10e-4,-0.032 0.017,-0.063 0.039,-0.135 z"
     id="path28"
     inkscape:connector-curvature="0" /></svg>