<svg xmlns:dc="http://purl.org/dc/elements/1.1/" xmlns:cc="http://creativecommons.org/ns#" xmlns:rdf="http://www.w3.org/1999/02/22-rdf-syntax-ns#" xmlns:svg="http://www.w3.org/2000/svg" xmlns="http://www.w3.org/2000/svg" xmlns:sodipodi="http://sodipodi.sourceforge.net/DTD/sodipodi-0.dtd" xmlns:inkscape="http://www.inkscape.org/namespaces/inkscape" version="1.1" x="0px" y="0px" viewBox="0 0 100 125"><g transform="translate(0,-952.36218)"><path style="text-indent:0;text-transform:none;direction:ltr;block-progression:tb;baseline-shift:baseline;color:#000000;enable-background:accumulate;" d="m 73.494086,1015.5028 c -0.12049,0.4331 -0.27783,0.8596 -0.4375,1.2812 -0.74967,1.9798 -1.885361,3.9517 -3.062501,5.9063 -2.35429,3.909 -4.65625,7.9514 -4.65625,9.875 0,5.0508 4.05932,9.0937 9.125001,9.0937 2.60116,0 5.0459,-0.9307 6.71875,-2.4687 1.67284,-1.538 2.63868,-3.6029 2.375,-6.4375 a 2.0000051,2.0000051 0 0 1 0,-0.031 c -0.23596,-2.5816 -2.63397,-7.4914 -5.5,-11.5938 -1.43301,-2.0511 -2.96158,-3.9528 -4.3125,-5.375 -0.0827,-0.087 -0.16772,-0.1666 -0.25,-0.25 z m 4.96875,14 a 2.0000051,2.0000051 0 0 1 1.9375,1.1875 c 0.71284,1.5669 0.90475,3.1764 0.4375,4.5937 -0.46725,1.4173 -1.52707,2.4376 -2.6875,3.0938 a 2.0000051,2.0000051 0 1 1 -1.96875,-3.4688 c 0.58577,-0.3312 0.78968,-0.6162 0.875,-0.875 0.0853,-0.2588 0.12255,-0.7311 -0.3125,-1.6875 a 2.0000051,2.0000051 0 0 1 1.71875,-2.8437 z" fill="#000000" fill-opacity="1" fill-rule="evenodd" stroke="none" marker="none" visibility="visible" display="inline" overflow="visible"/><path style="text-indent:0;text-transform:none;direction:ltr;block-progression:tb;baseline-shift:baseline;color:#000000;enable-background:accumulate;" d="m 35.056585,963.06532 c 0.0353,2.41567 -0.60123,4.95895 -1.5625,7.5 -1.54062,4.07248 -3.99479,8.32622 -6.5625,12.59375 -5.13542,8.53506 -10.53125,17.31163 -10.53125,22.90623 0,12.3748 10.00343,22.375 22.40625,22.375 6.2774,0 12.26273,-2.1952 16.4375,-6.0313 4.1744,-3.8357 6.60486,-9.2386 5.96875,-16.1562 -0.61599,-6.62906 -6.42899,-18.31558 -13,-27.90623 -3.2855,-4.79532 -6.75998,-9.12937 -9.75,-12.1875 -1.2462,-1.2746 -2.40376,-2.33101 -3.40625,-3.09375 z m 18.3125,32 a 2.0000051,2.0000051 0 0 1 0.1875,0 2.0000051,2.0000051 0 0 1 1.9375,1.1875 c 3.02733,6.63158 3.58186,12.37758 2,17.15618 -1.58186,4.7787 -5.21527,8.3762 -9.90625,11 a 2.0078581,2.0078581 0 1 1 -1.96875,-3.5 c 4.11362,-2.3008 6.89744,-5.1672 8.09375,-8.7812 1.19632,-3.614 0.87377,-8.1973 -1.875,-14.21873 a 2.0000051,2.0000051 0 0 1 1.53125,-2.84375 z" fill="#000000" fill-opacity="1" fill-rule="evenodd" stroke="none" marker="none" visibility="visible" display="inline" overflow="visible"/></g><text x="0" y="115" fill="#000000" font-size="5px" font-weight="bold" font-family="'Helvetica Neue', Helvetica, Arial-Unicode, Arial, Sans-serif">Created by chabib ali machbubi</text><text x="0" y="120" fill="#000000" font-size="5px" font-weight="bold" font-family="'Helvetica Neue', Helvetica, Arial-Unicode, Arial, Sans-serif">from the Noun Project</text></svg>