<svg xmlns="http://www.w3.org/2000/svg" xmlns:xlink="http://www.w3.org/1999/xlink" version="1.1" x="0px" y="0px" viewBox="0 0 50 62.5" style="enable-background:new 0 0 50 50;" xml:space="preserve"><g><path d="M17.5,16.7H12c-0.5,0-1,0.4-1,1v4.5c0,0.5,0.4,1,1,1h5.6c0.5,0,1-0.4,1-1v-4.5C18.5,17.1,18.1,16.7,17.5,16.7z M16.5,21.2   H13v-2.5h3.6V21.2z"/><path d="M38,16.7h-5.6c-0.5,0-1,0.4-1,1v4.5c0,0.5,0.4,1,1,1H38c0.5,0,1-0.4,1-1v-4.5C39,17.1,38.6,16.7,38,16.7z M37,21.2h-3.6   v-2.5H37V21.2z"/><path d="M17.5,25.5H12c-0.5,0-1,0.4-1,1V31c0,0.5,0.4,1,1,1h5.6c0.5,0,1-0.4,1-1v-4.5C18.5,26,18.1,25.5,17.5,25.5z M16.5,30H13   v-2.5h3.6V30z"/><path d="M38,25.5h-5.6c-0.5,0-1,0.4-1,1V31c0,0.5,0.4,1,1,1H38c0.5,0,1-0.4,1-1v-4.5C39,26,38.6,25.5,38,25.5z M37,30h-3.6v-2.5H37   V30z"/><path d="M27.8,16.7h-5.6c-0.5,0-1,0.4-1,1v4.5c0,0.5,0.4,1,1,1h5.6c0.5,0,1-0.4,1-1v-4.5C28.8,17.1,28.3,16.7,27.8,16.7z    M26.8,21.2h-3.6v-2.5h3.6V21.2z"/><path d="M27.8,25.5h-5.6c-0.5,0-1,0.4-1,1V31c0,0.5,0.4,1,1,1h5.6c0.5,0,1-0.4,1-1v-4.5C28.8,26,28.3,25.5,27.8,25.5z M26.8,30   h-3.6v-2.5h3.6V30z"/><path d="M43.7,48h-0.7V5.5c0-0.5-0.4-1-1-1h-5.7V2h1.3c0.5,0,1-0.4,1-1s-0.4-1-1-1c-8.6,0-17,0-25.5,0c-0.5,0-1,0.4-1,1s0.4,1,1,1   h1.3v2.5H7.9c-0.5,0-1,0.4-1,1V48H6.3c-0.5,0-1,0.4-1,1c0,0.5,0.4,1,1,1c33,0-38.1,0,37.5,0c0.5,0,1-0.4,1-1   C44.7,48.5,44.3,48,43.7,48z M15.6,2h18.8v2.5H15.6V2z M17.2,48V36.3H24V48H17.2z M26,48V36.3h6.9V48H26z M34.8,48V35.4   c0-0.5-0.4-1-1-1H16.2c-0.5,0-1,0.4-1,1V48H8.9V6.5c39,0-8.2,0,32.2,0V48H34.8z"/><path d="M22.3,12h1.4v1.4c0,0.5,0.4,1,1,1c0.5,0,1-0.4,1-1V12H27c0.5,0,1-0.4,1-1s-0.4-1-1-1h-1.4V8.6c0-0.5-0.4-1-1-1   c-0.5,0-1,0.4-1,1V10h-1.4c-0.5,0-1,0.4-1,1S21.7,12,22.3,12z"/></g><text x="0" y="65" fill="#000000" font-size="5px" font-weight="bold" font-family="'Helvetica Neue', Helvetica, Arial-Unicode, Arial, Sans-serif">Created by Vectors Market</text><text x="0" y="70" fill="#000000" font-size="5px" font-weight="bold" font-family="'Helvetica Neue', Helvetica, Arial-Unicode, Arial, Sans-serif">from the Noun Project</text></svg>