<svg xmlns="http://www.w3.org/2000/svg" xmlns:xlink="http://www.w3.org/1999/xlink" version="1.1" x="0px" y="0px" viewBox="0 0 100 125" enable-background="new 0 0 100 100" xml:space="preserve"><path d="M79.383,83.769l-13.149-8.729l4.679-15.073c0.014-0.044,0.016-0.088,0.026-0.132c0.022-0.086,0.041-0.172,0.053-0.26  c0.012-0.079,0.019-0.158,0.021-0.237c0.004-0.08,0.004-0.16,0-0.24c-0.004-0.082-0.013-0.162-0.024-0.242s-0.027-0.158-0.047-0.236  c-0.02-0.076-0.042-0.151-0.068-0.225c-0.027-0.078-0.059-0.154-0.094-0.229c-0.034-0.072-0.072-0.142-0.112-0.21  c-0.041-0.068-0.083-0.135-0.131-0.2c-0.053-0.072-0.11-0.14-0.171-0.207c-0.03-0.032-0.052-0.069-0.084-0.101L57.919,45.235  c3.653-5.039,4.118-11.063,0.806-14.246L43.963,16.808l-2.681,2.791l-5.373-5.162c-1.087-1.043-2.937-1.011-3.98,0.074  c-0.522,0.542-0.801,1.257-0.786,2.011c0.015,0.753,0.322,1.455,0.865,1.976l5.373,5.162l-5.743,5.979l-5.372-5.163  c-1.087-1.044-2.938-1.011-3.98,0.073c-0.521,0.543-0.8,1.257-0.785,2.011c0.015,0.753,0.322,1.456,0.865,1.976l5.373,5.162  l-2.383,2.48l14.762,14.183c1.375,1.321,3.252,2.019,5.425,2.019c2.95,0,6.155-1.301,8.92-3.53l11.224,11.084l-4.784,15.411  c-0.014,0.043-0.016,0.086-0.026,0.129c-0.022,0.089-0.041,0.177-0.054,0.266c-0.011,0.078-0.018,0.154-0.021,0.231  c-0.004,0.083-0.005,0.165,0,0.247c0.004,0.081,0.013,0.16,0.024,0.239c0.013,0.08,0.027,0.158,0.047,0.236  c0.02,0.076,0.042,0.15,0.068,0.225c0.028,0.078,0.059,0.154,0.094,0.229c0.033,0.069,0.068,0.136,0.107,0.202  c0.043,0.072,0.088,0.142,0.138,0.209c0.047,0.064,0.098,0.125,0.15,0.186c0.053,0.06,0.108,0.116,0.167,0.172  c0.065,0.06,0.134,0.114,0.205,0.167c0.036,0.027,0.066,0.061,0.104,0.086l14.71,9.765c0.426,0.282,0.905,0.417,1.381,0.417  c0.81,0,1.604-0.393,2.085-1.117C80.847,86.084,80.533,84.532,79.383,83.769z"/><text x="0" y="115" fill="#000000" font-size="5px" font-weight="bold" font-family="'Helvetica Neue', Helvetica, Arial-Unicode, Arial, Sans-serif">Created by Zaim</text><text x="0" y="120" fill="#000000" font-size="5px" font-weight="bold" font-family="'Helvetica Neue', Helvetica, Arial-Unicode, Arial, Sans-serif">from the Noun Project</text></svg>