<svg xmlns="http://www.w3.org/2000/svg" xmlns:xlink="http://www.w3.org/1999/xlink" xml:space="preserve" version="1.1" style="shape-rendering:geometricPrecision;text-rendering:geometricPrecision;image-rendering:optimizeQuality;" viewBox="0 0 253 178.75" x="0px" y="0px" fill-rule="evenodd" clip-rule="evenodd"><defs><style type="text/css">
   
    .fil0 {fill:black}
   
  </style></defs><g><path class="fil0" d="M233 139l0 -37 17 0c2,0 3,-2 3,-4l0 -53c0,-2 -1,-3 -3,-3l-17 0 0 -38c0,-2 -2,-4 -4,-4l-225 0c-2,0 -4,2 -4,4l0 135c0,2 2,4 4,4l225 0c2,0 4,-2 4,-4zm-15 -11l0 -113 -203 0 0 113 203 0z"/><polygon class="fil0" points="54,26 25,26 25,118 54,118 "/><polygon class="fil0" points="92,26 66,26 66,118 92,118 "/><polygon class="fil0" points="129,26 104,26 104,118 129,118 "/><polygon class="fil0" points="167,26 141,26 141,118 167,118 "/><polygon class="fil0" points="208,118 208,26 179,26 179,118 "/></g><text x="0" y="158" fill="#000000" font-size="5px" font-weight="bold" font-family="'Helvetica Neue', Helvetica, Arial-Unicode, Arial, Sans-serif">Created by Chrystina Angeline</text><text x="0" y="163" fill="#000000" font-size="5px" font-weight="bold" font-family="'Helvetica Neue', Helvetica, Arial-Unicode, Arial, Sans-serif">from the Noun Project</text></svg>