<?xml version="1.0" encoding="UTF-8" standalone="no"?>
<svg
   xmlns:dc="http://purl.org/dc/elements/1.1/"
   xmlns:cc="http://creativecommons.org/ns#"
   xmlns:rdf="http://www.w3.org/1999/02/22-rdf-syntax-ns#"
   xmlns:svg="http://www.w3.org/2000/svg"
   xmlns="http://www.w3.org/2000/svg"
   xmlns:sodipodi="http://sodipodi.sourceforge.net/DTD/sodipodi-0.dtd"
   xmlns:inkscape="http://www.inkscape.org/namespaces/inkscape"
   version="1.1"
   x="0px"
   y="0px"
   viewBox="0 0 111.876 111.876"
   enable-background="new 0 0 141.73 141.73"
   xml:space="preserve"
   id="svg34"
   sodipodi:docname="noun_street_166361.svg"
   width="111.876"
   height="111.876"
   inkscape:version="0.92.2 2405546, 2018-03-11"><metadata
     id="metadata40"><rdf:RDF><cc:Work
         rdf:about=""><dc:format>image/svg+xml</dc:format><dc:type
           rdf:resource="http://purl.org/dc/dcmitype/StillImage" /><dc:title></dc:title></cc:Work></rdf:RDF></metadata><defs
     id="defs38" /><sodipodi:namedview
     pagecolor="#ffffff"
     bordercolor="#666666"
     borderopacity="1"
     objecttolerance="10"
     gridtolerance="10"
     guidetolerance="10"
     inkscape:pageopacity="0"
     inkscape:pageshadow="2"
     inkscape:window-width="1366"
     inkscape:window-height="739"
     id="namedview36"
     showgrid="false"
     fit-margin-top="0"
     fit-margin-left="0"
     fit-margin-right="0"
     fit-margin-bottom="0"
     inkscape:zoom="3.3272064"
     inkscape:cx="59.334514"
     inkscape:cy="-30.512901"
     inkscape:window-x="0"
     inkscape:window-y="0"
     inkscape:window-maximized="1"
     inkscape:current-layer="svg34" /><g
     id="g28"
     transform="translate(-15.359,-14.969)"><path
       d="m 71.297,14.969 c -30.845,0 -55.938,25.093 -55.938,55.938 0,30.845 25.093,55.938 55.938,55.938 30.845,0 55.938,-25.093 55.938,-55.938 0,-30.845 -25.094,-55.938 -55.938,-55.938 z m 0,109.166 c -3.955,0 -7.804,-0.446 -11.514,-1.268 -0.265,-0.216 -0.619,-0.282 -0.952,-0.222 C 47.645,119.95 37.825,113.717 30.627,105.193 57.095,91.75 75.664,73.561 53.506,52.307 c 0,0 -9.529,-9.122 19.168,-16.905 0.516,-0.102 0.912,-0.332 2.067,-0.484 -5.043,2.981 -14.602,11.23 12.604,15.499 22.711,4.931 33.519,15.415 36.73,27.303 -3.358,26.142 -25.737,46.415 -52.778,46.415 z"
       id="path2"
       inkscape:connector-curvature="0" /><path
       d="m 83.777,97.865 c -0.486,-0.269 -1.147,-0.146 -1.464,0.28 -1.095,1.475 -2.27,2.972 -3.494,4.445 -0.338,0.409 -0.229,0.979 0.249,1.273 0.188,0.113 0.402,0.17 0.616,0.17 0.331,0 0.657,-0.133 0.865,-0.385 1.243,-1.498 2.438,-3.021 3.554,-4.525 0.315,-0.422 0.17,-0.988 -0.326,-1.258 z"
       id="path4"
       inkscape:connector-curvature="0" /><path
       d="m 66.987,115.094 c -1.389,1.32 -2.814,2.631 -4.279,3.938 -0.404,0.362 -0.393,0.943 0.031,1.291 0.205,0.171 0.469,0.254 0.734,0.254 0.278,0 0.557,-0.094 0.766,-0.28 1.476,-1.32 2.919,-2.646 4.318,-3.976 0.396,-0.372 0.361,-0.947 -0.071,-1.29 -0.433,-0.333 -1.104,-0.308 -1.499,0.063 z"
       id="path6"
       inkscape:connector-curvature="0" /><path
       d="m 70.36,51.979 c -0.833,-0.434 -2.084,-1.101 -3.256,-1.858 -0.312,-0.215 -0.828,-0.143 -1.119,0.125 -0.124,0.128 -0.209,0.307 -0.204,0.468 0.03,0.164 0.125,0.321 0.27,0.414 0.941,0.635 2.018,1.254 3.387,1.965 0.13,0.054 0.261,0.093 0.418,0.093 0.27,0 0.524,-0.111 0.7,-0.31 0.071,-0.091 0.13,-0.222 0.138,-0.331 0.018,-0.237 -0.1,-0.435 -0.334,-0.566 z"
       id="path8"
       inkscape:connector-curvature="0" /><path
       d="m 62.64,42.886 c 0.082,0.035 0.187,0.053 0.295,0.053 0.302,0 0.597,-0.136 0.75,-0.355 0.411,-0.623 0.974,-1.241 1.677,-1.821 0.304,-0.25 0.3,-0.629 0.002,-0.829 -0.298,-0.196 -0.788,-0.16 -1.069,0.069 -0.801,0.677 -1.457,1.373 -1.951,2.112 -0.05,0.066 -0.081,0.132 -0.091,0.216 -0.028,0.252 0.118,0.471 0.387,0.555 z"
       id="path10"
       inkscape:connector-curvature="0" /><path
       d="m 64.191,48.822 c 0.19,-0.124 0.319,-0.3 0.336,-0.479 0.016,-0.142 -0.035,-0.282 -0.154,-0.405 -0.846,-0.877 -1.334,-1.749 -1.479,-2.594 -0.049,-0.328 -0.456,-0.533 -0.878,-0.467 -0.422,0.086 -0.722,0.414 -0.653,0.741 0.159,1.041 0.734,2.074 1.755,3.149 0.118,0.126 0.327,0.214 0.549,0.214 0.197,10e-4 0.38,-0.051 0.524,-0.159 z"
       id="path12"
       inkscape:connector-curvature="0" /><path
       d="m 77.441,55.502 c -0.638,-0.318 -1.273,-0.633 -1.91,-0.934 -0.568,-0.276 -1.113,-0.553 -1.655,-0.831 -0.37,-0.166 -0.873,-0.054 -1.118,0.239 -0.099,0.148 -0.159,0.333 -0.104,0.5 0.034,0.167 0.158,0.316 0.331,0.41 0.744,0.37 1.507,0.745 2.278,1.119 0.418,0.209 0.835,0.417 1.233,0.622 0.021,0 0.042,0.019 0.087,0.039 l 0.133,0.075 V 56.72 c 0.091,0.021 0.18,0.021 0.249,0.021 0.296,0 0.575,-0.114 0.721,-0.318 0.075,-0.115 0.124,-0.228 0.133,-0.36 0.014,-0.225 -0.135,-0.45 -0.378,-0.561 z"
       id="path14"
       inkscape:connector-curvature="0" /><path
       d="m 81.054,57.365 c -0.355,-0.188 -0.859,-0.095 -1.125,0.208 -0.121,0.153 -0.152,0.325 -0.111,0.497 0.037,0.189 0.144,0.343 0.322,0.436 1.302,0.694 2.426,1.349 3.487,2.026 0.138,0.078 0.297,0.139 0.481,0.139 0.253,0 0.514,-0.121 0.652,-0.295 0.118,-0.113 0.169,-0.253 0.171,-0.408 0.007,-0.209 -0.104,-0.405 -0.307,-0.541 -1.035,-0.671 -2.203,-1.338 -3.57,-2.062 z"
       id="path16"
       inkscape:connector-curvature="0" /><path
       d="m 94.482,78.35 c -0.575,-0.122 -1.144,0.176 -1.283,0.668 -0.435,1.527 -1.083,3.157 -1.983,4.98 -0.23,0.465 0.022,0.999 0.562,1.198 0.135,0.049 0.276,0.071 0.414,0.071 0.412,0 0.805,-0.211 0.976,-0.555 0.945,-1.915 1.629,-3.636 2.091,-5.261 C 95.4,78.963 95.05,78.469 94.482,78.35 Z"
       id="path18"
       inkscape:connector-curvature="0" /><path
       d="m 75.075,106.887 c -1.272,1.394 -2.594,2.784 -3.957,4.166 -0.378,0.383 -0.325,0.956 0.123,1.285 0.2,0.146 0.444,0.219 0.687,0.219 0.3,0 0.598,-0.108 0.807,-0.326 1.386,-1.398 2.722,-2.805 4.012,-4.219 0.359,-0.396 0.281,-0.971 -0.18,-1.28 -0.46,-0.306 -1.13,-0.244 -1.492,0.155 z"
       id="path20"
       inkscape:connector-curvature="0" /><path
       d="m 92.635,67.884 c -0.522,0.228 -0.729,0.778 -0.461,1.228 0.903,1.522 1.421,3.102 1.587,4.832 0.046,0.478 0.512,0.839 1.055,0.839 0.029,0 0.062,-0.001 0.091,-0.003 0.584,-0.041 1.017,-0.482 0.969,-0.982 -0.185,-1.946 -0.795,-3.802 -1.811,-5.518 -0.265,-0.448 -0.908,-0.623 -1.43,-0.396 z"
       id="path22"
       inkscape:connector-curvature="0" /><path
       d="m 90.958,64.8 c -0.84,-1.021 -1.834,-2.013 -2.963,-2.96 -0.322,-0.255 -0.855,-0.234 -1.161,0.021 -0.329,0.276 -0.312,0.728 0.01,1.005 1.058,0.872 1.985,1.813 2.752,2.742 0.142,0.196 0.396,0.3 0.679,0.3 0.166,0 0.33,-0.042 0.474,-0.123 0.375,-0.222 0.468,-0.644 0.233,-0.97 z"
       id="path24"
       inkscape:connector-curvature="0" /><path
       d="m 89.962,88.427 c -0.52,-0.233 -1.16,-0.063 -1.434,0.387 -0.971,1.586 -1.961,3.094 -2.866,4.476 l -0.16,0.244 c -0.288,0.438 -0.108,0.996 0.404,1.242 0.164,0.081 0.342,0.116 0.521,0.116 0.369,0 0.73,-0.165 0.923,-0.463 l 0.16,-0.243 c 0.918,-1.396 1.915,-2.922 2.896,-4.523 0.272,-0.446 0.073,-0.999 -0.444,-1.236 z"
       id="path26"
       inkscape:connector-curvature="0" /></g></svg>