<svg xmlns="http://www.w3.org/2000/svg" xmlns:xlink="http://www.w3.org/1999/xlink" version="1.0" x="0px" y="0px" viewBox="0 0 63 146.5" enable-background="new 0 0 63 117.2" xml:space="preserve"><path d="M53.9,32.8c-0.7-1.2-2.2-1.6-3.4-0.9L33,41.9V28l9.2-5.3c0.1,0.3,0.5,0.5,0.9,0.5h0.1v0.6h-0.1c-0.5,0-0.9,0.4-0.9,0.8  s0.4,0.8,0.9,0.8h0.1v0.6h-0.1c-0.5,0-0.9,0.4-0.9,0.8s0.4,0.8,0.9,0.8h0.1v0.6h-0.1c-0.5,0-0.9,0.4-0.9,0.8c0,0.5,0.4,0.8,0.9,0.8  h0.1v0.1c0,0.3,0.3,0.5,0.6,0.5c0.3,0,0.6-0.2,0.6-0.5V30h0.1c0.5,0,0.9-0.4,0.9-0.8c0-0.5-0.4-0.8-0.9-0.8h-0.1v-0.6h0.1  c0.5,0,0.9-0.4,0.9-0.8s-0.4-0.8-0.9-0.8h-0.1v-0.6h0.1c0.5,0,0.9-0.4,0.9-0.8s-0.4-0.8-0.9-0.8h-0.1v-0.6h0.1  c0.5,0,0.9-0.4,0.9-0.8c0-0.5-0.4-0.8-0.9-0.8h-0.1c0,0,0-0.1,0-0.1l1.4-0.8c1.2-0.7,1.6-2.2,0.9-3.4c-0.7-1.2-2.2-1.6-3.4-0.9  L33,22.3V11.8c0-2-1.6-3.6-3.6-3.6h-0.1c-2,0-3.6,1.6-3.6,3.6v14.6l-14.5,8.4c-1.2,0.7-1.6,2.2-0.9,3.4c0.5,0.8,1.3,1.2,2.2,1.2  c0.4,0,0.9-0.1,1.2-0.3l0.8-0.5c0.1,0.3,0.5,0.6,0.9,0.6h0.1v0.6h-0.1c-0.5,0-0.9,0.4-0.9,0.8s0.4,0.8,0.9,0.8h0.1v0.6h-0.1  c-0.5,0-0.9,0.4-0.9,0.8s0.4,0.8,0.9,0.8h0.1v0.6h-0.1c-0.5,0-0.9,0.4-0.9,0.8c0,0.5,0.4,0.8,0.9,0.8h0.1v0.1c0,0.3,0.3,0.5,0.6,0.5  c0.3,0,0.6-0.2,0.6-0.5V46h0.1c0.5,0,0.9-0.4,0.9-0.8c0-0.5-0.4-0.8-0.9-0.8h-0.1v-0.6h0.1c0.5,0,0.9-0.4,0.9-0.8s-0.4-0.8-0.9-0.8  h-0.1v-0.6h0.1c0.5,0,0.9-0.4,0.9-0.8s-0.4-0.8-0.9-0.8h-0.1v-0.6h0.1c0.5,0,0.9-0.4,0.9-0.8c0-0.5-0.4-0.8-0.9-0.8h-0.1  c0,0,0-0.1,0-0.1l9.1-5.2v13.9L8,56.3c-1.2,0.7-1.6,2.2-0.9,3.4C7.5,60.6,8.4,61,9.3,61c0.4,0,0.9-0.1,1.2-0.3l0.9-0.5  c0.2,0.3,0.5,0.4,0.8,0.4h0.1v0.6h-0.1c-0.5,0-0.9,0.4-0.9,0.8s0.4,0.8,0.9,0.8h0.1v0.6h-0.1c-0.5,0-0.9,0.4-0.9,0.8  s0.4,0.8,0.9,0.8h0.1v0.6h-0.1c-0.5,0-0.9,0.4-0.9,0.8c0,0.5,0.4,0.8,0.9,0.8h0.1v0.1c0,0.3,0.3,0.5,0.6,0.5c0.3,0,0.6-0.2,0.6-0.5  v-0.1h0.1c0.5,0,0.9-0.4,0.9-0.8c0-0.5-0.4-0.8-0.9-0.8h-0.1v-0.6h0.1c0.5,0,0.9-0.4,0.9-0.8s-0.4-0.8-0.9-0.8h-0.1v-0.6h0.1  c0.5,0,0.9-0.4,0.9-0.8s-0.4-0.8-0.9-0.8h-0.1v-0.6h0.1c0.5,0,0.9-0.4,0.9-0.8c0-0.5-0.4-0.8-0.9-0.8h-0.1l12.3-7.1  c0,0-0.1,58.4,0,59.4s3.2,0.9,4.8,0.2c2.4-1.1,2.5-2,2.5-2V47.7l16.1-9.3c0.2,0.2,0.5,0.4,0.8,0.4H50v0.6h-0.1  c-0.5,0-0.9,0.4-0.9,0.8s0.4,0.8,0.9,0.8H50v0.6h-0.1c-0.5,0-0.9,0.4-0.9,0.8s0.4,0.8,0.9,0.8H50V44h-0.1c-0.5,0-0.9,0.4-0.9,0.8  c0,0.5,0.4,0.8,0.9,0.8H50v0.1c0,0.3,0.3,0.5,0.6,0.5c0.3,0,0.6-0.2,0.6-0.5v-0.1h0.1c0.5,0,0.9-0.4,0.9-0.8c0-0.5-0.4-0.8-0.9-0.8  h-0.1v-0.6h0.1c0.5,0,0.9-0.4,0.9-0.8s-0.4-0.8-0.9-0.8h-0.1v-0.6h0.1c0.5,0,0.9-0.4,0.9-0.8s-0.4-0.8-0.9-0.8h-0.1v-0.6h0.1  c0.5,0,0.9-0.4,0.9-0.8c0-0.5-0.4-0.8-0.9-0.8h-0.1l1.8-1C54.2,35.5,54.6,33.9,53.9,32.8z"/><text x="0" y="132.2" fill="#000000" font-size="5px" font-weight="bold" font-family="'Helvetica Neue', Helvetica, Arial-Unicode, Arial, Sans-serif">Created by Nick Bluth</text><text x="0" y="137.2" fill="#000000" font-size="5px" font-weight="bold" font-family="'Helvetica Neue', Helvetica, Arial-Unicode, Arial, Sans-serif">from the Noun Project</text></svg>